<svg width="72" height="70" viewBox="0 0 72 70" fill="none" xmlns="http://www.w3.org/2000/svg">
<path d="M36.7006 69C55.7528 69 71.1978 53.5551 71.1978 34.5028C71.1978 15.4505 55.7528 0.00559998 36.7006 0.00559998C17.6483 0.00559998 2.20337 15.4505 2.20337 34.5028C2.20337 53.5551 17.6483 69 36.7006 69Z" fill="#F806CC"/>
<circle cx="35" cy="35" r="35" fill="black"/>
<path d="M16 26L34.0787 37.0508L52.5 25.568M15.3125 21.9688L52.3633 21.9688M16.5 46.5L27.002 32.7441L34.043 36.9824L41.1523 32.7441L52.5 47.373M15.3125 48L52.3633 48M16.3125 22.9688L16.3125 48.8086M53 21V49" stroke="white" stroke-width="2"/>
</svg>
