<svg width="1440" height="1024" viewBox="0 0 1440 1024" fill="none" xmlns="http://www.w3.org/2000/svg">
<g filter="url(#filter0_f_3_14)">
<path d="M0 -16H1440V1008H0V-16Z" fill="#A91079"/>
<path d="M720 19.5C720 389.255 397.869 689 0.5 689C-396.869 689 -719 389.255 -719 19.5C-719 -350.255 -396.869 -650 0.5 -650C397.869 -650 720 -350.255 720 19.5Z" fill="#2E0249" fill-opacity="0.8"/>
<path d="M1791 842C1791 1071.2 1595.57 1257 1354.5 1257C1113.43 1257 918 1071.2 918 842C918 612.802 1113.43 427 1354.5 427C1595.57 427 1791 612.802 1791 842Z" fill="#570A57" fill-opacity="0.8"/>
</g>
<defs>
<filter id="filter0_f_3_14" x="-1319" y="-1250" width="3710" height="3107" filterUnits="userSpaceOnUse" color-interpolation-filters="sRGB">
<feFlood flood-opacity="0" result="BackgroundImageFix"/>
<feBlend mode="normal" in="SourceGraphic" in2="BackgroundImageFix" result="shape"/>
<feGaussianBlur stdDeviation="300" result="effect1_foregroundBlur_3_14"/>
</filter>
</defs>
</svg>
