<svg width="73" height="71" viewBox="0 0 73 71" fill="none" xmlns="http://www.w3.org/2000/svg">
<circle cx="37.7006" cy="36.5028" r="34.4972" fill="#F806CC"/>
<circle cx="35.7006" cy="36.5028" r="34.4972" fill="black"/>
<mask id="mask0_4_47" style="mask-type:alpha" maskUnits="userSpaceOnUse" x="0" y="0" width="71" height="71">
<path d="M71 35.5C71 55.1061 55.1061 71 35.5 71C15.8939 71 0 55.1061 0 35.5C0 15.8939 15.8939 0 35.5 0C55.1061 0 71 15.8939 71 35.5Z" fill="black"/>
</mask>
<g mask="url(#mask0_4_47)">
<path d="M61.3729 66.7881C61.3729 81.0773 49.7892 92.661 35.5 92.661C21.2108 92.661 9.62711 81.0773 9.62711 66.7881C9.62711 52.4989 21.2108 40.9153 35.5 40.9153C49.7892 40.9153 61.3729 52.4989 61.3729 66.7881Z" fill="#D9D9D9"/>
</g>
<circle cx="35.5" cy="27.0763" r="15.4435" fill="#D9D9D9"/>
</svg>
